<svg aria-hidden="true" style="position: absolute; width: 0; height: 0; overflow: hidden;" version="1.1" xmlns="http://www.w3.org/2000/svg" xmlns:xlink="http://www.w3.org/1999/xlink">
<defs>
<symbol id="icon-Vector-1" viewBox="0 0 35 32">
<path d="M25.957 20.686c2.14-2.643 3.099-5.92 2.684-9.175s-2.173-6.248-4.922-8.381c-2.749-2.133-6.287-3.247-9.905-3.121s-7.051 1.484-9.61 3.802-4.058 5.425-4.194 8.699c-0.137 3.274 1.098 6.475 3.456 8.961s5.668 4.074 9.265 4.447 7.218-0.497 10.137-2.435h-0.002c0.065 0.080 0.137 0.157 0.217 0.23l8.51 7.701c0.414 0.375 0.977 0.586 1.563 0.586s1.149-0.21 1.564-0.585 0.648-0.884 0.648-1.414c0-0.531-0.233-1.040-0.647-1.415l-8.51-7.701c-0.079-0.072-0.164-0.137-0.254-0.198zM26.527 12.998c0 1.445-0.314 2.875-0.925 4.21s-1.507 2.548-2.635 3.569c-1.129 1.022-2.469 1.832-3.944 2.385s-3.056 0.837-4.652 0.837-3.177-0.285-4.652-0.837c-1.475-0.553-2.815-1.363-3.944-2.385s-2.024-2.234-2.635-3.569c-0.611-1.335-0.925-2.765-0.925-4.21 0-2.918 1.281-5.716 3.561-7.779s5.372-3.222 8.597-3.222c3.224 0 6.317 1.159 8.597 3.222s3.561 4.861 3.561 7.779z"></path>
</symbol>
<symbol id="icon-mobile" viewBox="0 0 22 32">
<path d="M16.944 2.987c0.537 0 1.052 0.202 1.432 0.562s0.593 0.848 0.593 1.358v23.040c0 0.509-0.213 0.998-0.593 1.358s-0.895 0.562-1.432 0.562h-12.148c-0.537 0-1.052-0.202-1.432-0.562s-0.593-0.848-0.593-1.358v-23.040c0-0.509 0.213-0.998 0.593-1.358s0.895-0.562 1.432-0.562h12.148zM4.796 1.067c-1.074 0-2.104 0.405-2.863 1.125s-1.186 1.697-1.186 2.715v23.040c0 1.018 0.427 1.995 1.186 2.715s1.789 1.125 2.863 1.125h12.148c1.074 0 2.104-0.404 2.863-1.125s1.186-1.697 1.186-2.715v-23.040c0-1.018-0.427-1.995-1.186-2.715s-1.789-1.125-2.863-1.125h-12.148z"></path>
<path d="M10.87 27.947c0.537 0 1.052-0.202 1.432-0.562s0.593-0.848 0.593-1.358c0-0.509-0.213-0.998-0.593-1.358s-0.895-0.562-1.432-0.562-1.052 0.202-1.432 0.562c-0.38 0.36-0.593 0.848-0.593 1.358s0.213 0.997 0.593 1.358c0.38 0.36 0.895 0.562 1.432 0.562z"></path>
</symbol>
<symbol id="icon-basket" viewBox="0 0 34 32">
<path d="M32.753 8.327c-0.094-0.129-0.218-0.235-0.362-0.308s-0.305-0.111-0.467-0.111h-21.66l-1.64-5.505c-0.643-2.168-2.171-2.402-2.797-2.402h-4.372c-0.56 0-1.014 0.442-1.014 0.987s0.454 0.987 1.013 0.987h4.371c0.138 0 0.56 0 0.848 0.968l5.64 20.184c0.122 0.426 0.521 0.72 0.976 0.72h13.777c0.428 0 0.809-0.261 0.954-0.653l4.856-13.965c0.112-0.303 0.065-0.639-0.124-0.901v0zM26.355 21.873h-12.295l-3.226-11.991h19.65l-4.129 11.991zM24.344 25.846c-1.409 0-2.551 1.112-2.551 2.484s1.142 2.484 2.551 2.484 2.551-1.112 2.551-2.484c0-1.372-1.142-2.484-2.551-2.484zM15.159 25.846c-1.409 0-2.551 1.112-2.551 2.484s1.142 2.484 2.552 2.484 2.552-1.112 2.552-2.484c0-1.372-1.142-2.484-2.552-2.484z"></path>
</symbol>
</defs>
</svg>
