<svg aria-hidden="true" style="position: absolute; width: 0; height: 0; overflow: hidden;" version="1.1" xmlns="http://www.w3.org/2000/svg" xmlns:xlink="http://www.w3.org/1999/xlink">
<defs>
<symbol id="icon-BRUSOK" viewBox="0 0 172 32">
<path d="M4.363 31.135v-3.463h6.968c1.168 0 2.189-0.099 3.062-0.296s1.563-0.45 2.069-0.76c0.507-0.324 0.915-0.725 1.225-1.204s0.514-0.95 0.612-1.415c0.113-0.465 0.169-0.985 0.169-1.563 0-0.465-0.042-0.894-0.127-1.288-0.070-0.408-0.197-0.823-0.38-1.246s-0.45-0.795-0.802-1.119-0.781-0.619-1.288-0.887c-0.507-0.267-1.147-0.472-1.921-0.612-0.76-0.141-1.633-0.211-2.618-0.211h-6.968v-3.273h7.179c0.985 0 1.844-0.148 2.576-0.443 0.732-0.31 1.288-0.711 1.668-1.204 0.394-0.493 0.676-1.006 0.845-1.541 0.183-0.535 0.274-1.091 0.274-1.668 0-0.563-0.091-1.098-0.274-1.605-0.169-0.507-0.45-0.992-0.845-1.457-0.38-0.479-0.936-0.859-1.668-1.14s-1.591-0.422-2.576-0.422h-7.179v-3.463h7.707c1.337 0 2.541 0.162 3.611 0.486 1.084 0.31 1.978 0.725 2.682 1.246 0.718 0.521 1.316 1.14 1.795 1.858 0.479 0.704 0.816 1.443 1.014 2.217 0.211 0.76 0.317 1.548 0.317 2.365 0 1.211-0.324 2.386-0.971 3.526-0.633 1.14-1.619 1.971-2.956 2.492v0.084c3.632 0.999 5.448 3.407 5.448 7.221 0 0.943-0.113 1.83-0.338 2.66-0.225 0.816-0.619 1.612-1.182 2.386-0.549 0.76-1.246 1.415-2.090 1.964-0.845 0.535-1.929 0.964-3.252 1.288s-2.829 0.486-4.519 0.486h-7.264zM0.225 27.672v-10.6h4.138v10.6h-4.138zM0.225 13.8v-9.481h4.138v9.481h-4.138zM32.995 18.551v12.584h-4.139v-12.584h4.139zM28.856 15.341v-11.022h4.139v11.022h-4.139zM32.995 18.551v-3.209h6.482c2.407 0 4.117-0.465 5.131-1.394 1.028-0.943 1.542-2.323 1.542-4.139 0-1.788-0.514-3.146-1.542-4.075-1.014-0.943-2.724-1.415-5.131-1.415h-6.482v-3.463h7.707c1.675 0 3.153 0.232 4.434 0.697s2.308 1.105 3.083 1.921c0.788 0.802 1.373 1.731 1.753 2.787 0.394 1.042 0.591 2.182 0.591 3.421 0 2.083-0.535 3.885-1.605 5.405s-2.668 2.548-4.793 3.083l8.129 12.965h-4.582l-7.876-12.584h-6.841zM57.488 19.944v-19.088h4.139v19.341c0 2.548 0.669 4.547 2.006 5.997 1.351 1.45 3.266 2.175 5.744 2.175s4.385-0.725 5.722-2.175c1.338-1.45 2.006-3.449 2.006-5.997v-19.341h4.16v19.088c0 3.941-1.027 6.912-3.083 8.91-2.041 1.985-4.976 2.977-8.805 2.977s-6.771-0.992-8.826-2.977c-2.041-1.999-3.062-4.969-3.062-8.91zM105.018 8.606c-0.296-1.506-0.972-2.696-2.027-3.568s-2.484-1.309-4.286-1.309c-1.211 0-2.288 0.169-3.231 0.507-0.943 0.324-1.717 0.866-2.323 1.626-0.591 0.746-0.887 1.675-0.887 2.787 0 0.788 0.204 1.471 0.612 2.048 0.422 0.563 0.979 1.021 1.668 1.372 0.704 0.352 1.506 0.662 2.407 0.929 0.915 0.253 1.872 0.493 2.872 0.718 1.014 0.211 2.020 0.45 3.019 0.718 1.014 0.253 1.971 0.591 2.872 1.014 0.915 0.408 1.717 0.894 2.407 1.457 0.704 0.563 1.26 1.302 1.668 2.217 0.422 0.915 0.633 1.964 0.633 3.146 0 2.872-1.077 5.187-3.231 6.947-2.154 1.745-5.075 2.618-8.763 2.618-1.182 0-2.316-0.127-3.399-0.38s-2.112-0.648-3.083-1.182c-0.957-0.549-1.802-1.211-2.534-1.985-0.718-0.774-1.302-1.717-1.753-2.829-0.451-1.126-0.704-2.358-0.76-3.695h4.265c0.113 1.816 0.901 3.357 2.365 4.624s3.329 1.9 5.595 1.9c1.957 0 3.618-0.45 4.983-1.351 1.379-0.915 2.069-2.111 2.069-3.59 0-1.154-0.338-2.126-1.014-2.914-0.675-0.802-1.548-1.408-2.618-1.816-1.070-0.422-2.259-0.788-3.568-1.098-1.295-0.324-2.597-0.669-3.907-1.035-1.295-0.38-2.477-0.831-3.547-1.351-1.070-0.535-1.942-1.302-2.618-2.302s-1.014-2.217-1.014-3.653c0-1.14 0.253-2.252 0.76-3.336s1.21-2.041 2.112-2.872c0.901-0.845 2.027-1.52 3.378-2.027s2.815-0.76 4.392-0.76c1.816 0 3.47 0.31 4.962 0.929s2.745 1.577 3.758 2.872c1.028 1.281 1.675 2.822 1.942 4.624h-4.18zM137.112 29.763c-2.196 1.351-4.765 2.027-7.707 2.027s-5.511-0.676-7.707-2.027c-2.196-1.351-3.871-3.217-5.025-5.595-1.14-2.379-1.71-5.117-1.71-8.214s0.57-5.835 1.71-8.214c1.154-2.379 2.829-4.237 5.025-5.574 2.196-1.351 4.765-2.027 7.707-2.027s5.511 0.676 7.707 2.027c2.196 1.337 3.864 3.195 5.005 5.574 1.154 2.379 1.731 5.117 1.731 8.214s-0.577 5.835-1.731 8.214c-1.14 2.379-2.809 4.244-5.005 5.595zM122.036 7.064c-1.774 2.238-2.66 5.201-2.66 8.889s0.886 6.658 2.66 8.91c1.774 2.252 4.23 3.378 7.369 3.378s5.595-1.126 7.369-3.378c1.788-2.252 2.681-5.222 2.681-8.91s-0.894-6.651-2.681-8.889c-1.774-2.252-4.23-3.378-7.369-3.378s-5.595 1.126-7.369 3.378zM149.253 0.856h4.139v13.197h-4.139v-13.197zM149.253 31.135v-13.197h4.139v13.197h-4.139zM153.392 17.938v-3.885h4.751v3.885h-4.751zM158.143 17.938h4.645l8.953 13.197h-4.687l-8.911-13.197zM158.143 14.053l8.15-13.197h4.582l-8.319 13.197h-4.413z"></path>
</symbol>
</defs>
</svg>
